Coordinates
version=1
nRows=14
nColumns=24
inDegrees=yes

Units are S.I. units (second, meters, Newtons, ...)
Angles are in degrees.

endheader
time	pelvis_tilt	pelvis_list	pelvis_rotation	pelvis_tx	pelvis_ty	pelvis_tz	hip_flexion_r	hip_adduction_r	hip_rotation_r	knee_angle_r	ankle_angle_r	subtalar_angle_r	mtp_angle_r	hip_flexion_l	hip_adduction_l	hip_rotation_l	knee_angle_l	ankle_angle_l	subtalar_angle_l	mtp_angle_l	lumbar_extension	lumbar_bending	lumbar_rotation
      0.57500000	     -1.71156008	      4.40769049	     -2.03766742	     -0.81663403	      1.05212429	      0.34445515	     24.11492748	      0.16618301	     -7.56414837	     -0.26342229	      2.47011703	     -1.54938278	      0.00184038	    -12.60372344	      9.96291241	     -1.12368143	     -4.64170572	     10.15006891	      3.90275585	      0.09246094	      6.08404762	     -2.62650815	     -2.06542724
      0.57916667	     -1.78478199	      4.49303480	     -2.06825942	     -0.81121259	      1.05155624	      0.34463062	     24.13115783	      0.19726614	     -7.42477461	     -0.43509869	      2.39483735	     -1.57592270	      0.00679158	    -12.64908107	     10.05084018	     -1.19343684	     -4.99694539	      9.91028068	      3.96927368	      0.02974860	      6.02543952	     -2.76969696	     -2.25335348
      0.58333333	     -1.80512409	      4.50332459	     -2.05597887	     -0.80550795	      1.05115352	      0.34466176	     24.04926620	      0.27210772	     -7.38709828	     -0.62885802	      2.40134274	     -1.60500997	      0.00849431	    -12.77411521	     10.05631918	     -1.18244517	     -5.36118680	      9.88955895	      3.96321984	      0.01835998	      6.12447686	     -2.75139170	     -2.27799119
      0.58750000	     -1.82497054	      4.50562069	     -2.04260478	     -0.79973633	      1.05077715	      0.34465838	     23.96529232	      0.34912993	     -7.33271081	     -0.86663738	      2.41351868	     -1.65310290	      0.01096196	    -12.88755008	     10.05211034	     -1.18513928	     -5.75415446	      9.85502929	      3.96705792	      0.00610431	      6.20958368	     -2.72675862	     -2.30621422
      0.59166667	     -1.85232942	      4.47364536	     -2.06722444	     -0.79382716	      1.05040309	      0.34482869	     23.86623608	      0.48814143	     -7.12927587	     -1.12078724	      2.50005933	     -2.00790044	      0.02702652	    -12.97371919	     10.00283741	     -1.41275577	     -6.18497753	      9.74125487	      4.09680986	     -0.06148418	      6.29986588	     -2.70786423	     -2.46863948
      0.59583333	     -1.86031955	      4.48543248	     -2.03517745	     -0.78805713	      1.05009471	      0.34474053	     23.76936658	      0.53127207	     -7.00422093	     -1.42702795	      2.43954381	     -2.02166829	      0.02966837	    -13.06553418	     10.00555760	     -1.35821896	     -6.64311364	      9.70469941	      4.11988647	     -0.06841084	      6.36745397	     -2.66980473	     -2.47860370
      0.60000000	     -1.87115815	      4.48530014	     -1.99819939	     -0.78223729	      1.04981534	      0.34464332	     23.66779251	      0.58055277	     -6.86016699	     -1.74941977	      2.36323954	     -2.05099219	      0.03267112	    -13.13726063	      9.99077483	     -1.34040402	     -7.13938419	      9.64962123	      4.14219525	     -0.07473369	      6.42925648	     -2.62741397	     -2.49020788
      0.60416667	     -1.88984324	      4.45987376	     -2.07873243	     -0.77631948	      1.04950966	      0.34513621	     23.50773455	      0.74746158	     -6.09242397	     -1.92966966	      1.84607758	     -3.10513635	      0.08781254	    -13.15811690	      9.92025325	     -1.76802106	     -7.69545412	      9.53425782	      4.67736011	     -0.15752484	      6.51683078	     -2.68374458	     -2.58205061
      0.60833333	     -1.89031145	      4.45692654	     -2.04396766	     -0.77048099	      1.04930116	      0.34498385	     23.39722926	      0.78362612	     -5.95864396	     -2.28449195	      1.76383406	     -3.10197500	      0.09240972	    -13.20046358	      9.90072739	     -1.74487754	     -8.27261434	      9.47017404	      4.69052992	     -0.16094972	      6.56305185	     -2.60257679	     -2.58827230
      0.61250000	     -1.89129466	      4.44725860	     -1.99325300	     -0.76461776	      1.04914414	      0.34483014	     23.27046644	      0.81727096	     -5.77866848	     -2.61468340	      1.61215357	     -3.10754628	      0.09775729	    -13.21188479	      9.86282802	     -1.77874579	     -8.90639327	      9.36181939	      4.72251309	     -0.16355639	      6.60787278	     -2.52190697	     -2.59683769
      0.61666667	     -1.91747904	      4.37288679	     -2.08894547	     -0.75849156	      1.04893929	      0.34537609	     23.09104494	      1.02800369	     -5.00232965	     -2.77561978	      0.75267582	     -4.06706249	      0.17177220	    -13.17293175	      9.72143447	     -2.33800498	     -9.55447434	      9.07195096	      5.38657682	     -0.15167574	      6.73044633	     -2.53280252	     -2.57704406
      0.62083333	     -1.90491525	      4.36682868	     -2.04962295	     -0.75266447	      1.04886394	      0.34519067	     22.96104200	      1.04437547	     -4.84788938	     -3.14198901	      0.63355924	     -4.06223270	      0.17813803	    -13.15227464	      9.68564369	     -2.34679526	    -10.26694197	      8.98233085	      5.40541078	     -0.14925503	      6.75601564	     -2.41536591	     -2.58853604
      0.62500000	     -1.92920919	      4.29676344	     -2.12064723	     -0.74659842	      1.04873802	      0.34567828	     22.78856345	      1.22477432	     -4.13845867	     -3.32465206	     -0.23433103	     -5.03397591	      0.29453543	    -13.05715695	      9.53268366	     -2.87611620	    -11.03518932	      8.74481177	      6.14249557	     -0.04877018	      6.77273597	     -2.30774625	     -2.56915627
      0.62916667	     -1.93509884	      4.25697196	     -2.14076549	     -0.74061531	      1.04869556	      0.34568276	     22.66316074	      1.30034441	     -3.90072863	     -3.64741764	     -0.72174125	     -5.06754994	      0.33255917	    -12.96745162	      9.44520776	     -3.12983677	    -11.82377763	      8.40133804	      6.32939506	     -0.01120917	      6.80148966	     -2.21385612	     -2.58343444
